HIERARCHY
ROOT Hips
{
	OFFSET 0.000000 0.000000 0.000000
	CHANNELS 6 Xposition Yposition Zposition Zrotation Yrotation Xrotation 
	JOINT LHipJoint
	{
		OFFSET 0.000000 0.000000 0.000000
		CHANNELS 3 Zrotation Yrotation Xrotation
		JOINT LeftUpLeg
		{
			OFFSET 1.363060 -1.794630 0.839290
			CHANNELS 3 Zrotation Yrotation Xrotation
			JOINT LeftLeg
			{
				OFFSET 2.448110 -6.726130 0.000000
				CHANNELS 3 Zrotation Yrotation Xrotation
				JOINT LeftFoot
				{
					OFFSET 2.562200 -7.039590 0.000000
					CHANNELS 3 Zrotation Yrotation Xrotation
					JOINT LeftToeBase
					{
						OFFSET 0.157640 -0.433110 2.322550
						CHANNELS 3 Zrotation Yrotation Xrotation
						End Site
						{
							OFFSET 0.000000 0.000000 0.000000
						}
					}
				}
			}
		}
	}
	JOINT RHipJoint
	{
		OFFSET 0.000000 0.000000 0.000000
		CHANNELS 3 Zrotation Yrotation Xrotation
		JOINT RightUpLeg
		{
			OFFSET -1.305520 -1.794630 0.839290
			CHANNELS 3 Zrotation Yrotation Xrotation
			JOINT RightLeg
			{
				OFFSET -2.542530 -6.985550 0.000000
				CHANNELS 3 Zrotation Yrotation Xrotation
				JOINT RightFoot
				{
					OFFSET -2.568260 -7.056230 0.000000
					CHANNELS 3 Zrotation Yrotation Xrotation
					JOINT RightToeBase
					{
						OFFSET -0.164730 -0.452590 2.363150
						CHANNELS 3 Zrotation Yrotation Xrotation
						End Site
						{
							OFFSET 0.000000 0.000000 0.000000
						}
					}
				}
			}
		}
	}
	JOINT LowerBack
	{
		OFFSET 0.000000 0.000000 0.000000
		CHANNELS 3 Zrotation Yrotation Xrotation
		JOINT Spine
		{
			OFFSET 0.028270 2.035590 -0.193380
			CHANNELS 3 Zrotation Yrotation Xrotation
			JOINT Spine1
			{
				OFFSET 0.056720 2.048850 -0.042750
				CHANNELS 3 Zrotation Yrotation Xrotation
				JOINT Neck
				{
					OFFSET 0.000000 0.000000 0.000000
					CHANNELS 3 Zrotation Yrotation Xrotation
					JOINT Neck1
					{
						OFFSET -0.054170 1.746240 0.172020
						CHANNELS 3 Zrotation Yrotation Xrotation
						JOINT Head
						{
							OFFSET 0.104070 1.761360 -0.123970
							CHANNELS 3 Zrotation Yrotation Xrotation
							End Site
							{
								OFFSET 0.000000 0.000000 0.000000
							}
						}
					}
				}
				JOINT LeftShoulder
				{
					OFFSET 0.000000 0.000000 0.000000
					CHANNELS 3 Zrotation Yrotation Xrotation
					JOINT LeftArm
					{
						OFFSET 3.362410 1.200890 -0.311210
						CHANNELS 3 Zrotation Yrotation Xrotation
						JOINT LeftForeArm
						{
							OFFSET 4.983000 -0.000000 -0.000000
							CHANNELS 3 Zrotation Yrotation Xrotation
							JOINT LeftHand
							{
								OFFSET 3.483560 -0.000000 -0.000000
								CHANNELS 3 Zrotation Yrotation Xrotation
								JOINT LeftFingerBase
								{
									OFFSET 0.000000 0.000000 0.000000
									CHANNELS 3 Zrotation Yrotation Xrotation
									JOINT LeftHandIndex1
									{
										OFFSET 0.715260 -0.000000 -0.000000
										CHANNELS 3 Zrotation Yrotation Xrotation
										End Site
										{
											OFFSET 0.000000 0.000000 0.000000
										}
									}
								}
								JOINT LThumb
								{
									OFFSET 0.000000 0.000000 0.000000
									CHANNELS 3 Zrotation Yrotation Xrotation
									End Site
									{
										OFFSET 0.000000 0.000000 0.000000
									}
								}
							}
						}
					}
				}
				JOINT RightShoulder
				{
					OFFSET 0.000000 0.000000 0.000000
					CHANNELS 3 Zrotation Yrotation Xrotation
					JOINT RightArm
					{
						OFFSET -3.136600 1.374050 -0.404650
						CHANNELS 3 Zrotation Yrotation Xrotation
						JOINT RightForeArm
						{
							OFFSET -5.241900 -0.000000 -0.000000
							CHANNELS 3 Zrotation Yrotation Xrotation
							JOINT RightHand
							{
								OFFSET -3.444170 -0.000000 -0.000000
								CHANNELS 3 Zrotation Yrotation Xrotation
								JOINT RightFingerBase
								{
									OFFSET 0.000000 0.000000 0.000000
									CHANNELS 3 Zrotation Yrotation Xrotation
									JOINT RightHandIndex1
									{
										OFFSET -0.622530 -0.000000 -0.000000
										CHANNELS 3 Zrotation Yrotation Xrotation
										End Site
										{
											OFFSET 0.000000 0.000000 0.000000
										}
									}
								}
								JOINT RThumb
								{
									OFFSET 0.000000 0.000000 0.000000
									CHANNELS 3 Zrotation Yrotation Xrotation
									End Site
									{
										OFFSET 0.000000 0.000000 0.000000
									}
								}
							}
						}
					}
				}
			}
		}
	}
}
MOTION
Frames: 7
Frame Time: 0.008333
1.767862 17.650929 -22.177097 3.316775 7.199192 2.492523 0.508716 0.805811 0.528050 -27.904792 -4.834487 6.110027 -0.180263 5.345275 15.197926 0.994135 -2.899367 -9.029430 0.304900 3.549900 9.813600 -2.602798 -0.548066 -0.481048 12.260700 11.764336 -29.719939 -0.465051 -6.292527 16.373801 1.613213 -13.938471 -13.126711 -0.076400 -1.783000 4.906200 -4.287016 -3.277539 8.816734 0.386528 -4.474586 -1.218634 3.663335 -2.720042 -0.147238 -0.808236 -1.237623 -15.448816 2.912865 -1.896460 10.473905 -0.815200 -0.819800 8.146000 1.077993 4.456767 -0.835611 -84.567173 5.349333 25.550849 24.119122 -36.365872 -7.971269 0.402124 -0.264075 2.335885 5.036087 41.406256 3.079800 -7.125000 0.000000 0.000000 -43.156500 66.924800 -24.624600 -0.227279 -5.162573 -1.594695 85.829028 -9.693999 -20.164796 -6.122423 11.418911 -0.272441 1.096942 -0.068968 11.393571 -14.685020 16.107634 -4.417700 7.125000 0.000000 0.000000 7.989100 -13.635100 5.939800 
1.759995 17.643573 -22.086676 3.037745 6.891552 2.624086 0.507467 0.821098 0.536587 -27.557340 -4.557331 6.323376 -0.223199 5.218800 14.855453 0.893672 -2.377326 -8.859974 0.263000 3.298900 9.112200 -2.629182 -0.556193 -0.464510 12.527680 12.111846 -30.102448 -0.408629 -6.161959 15.955622 1.740091 -14.662736 -13.323647 -0.042400 -1.329000 3.654600 -4.172608 -3.052441 8.830074 0.456275 -4.166620 -1.218010 3.859528 -2.571017 -0.193769 -0.729657 -1.161778 -15.365515 3.063129 -1.832942 10.342600 -0.774600 -0.774000 8.075000 1.104608 4.446033 -0.831861 -84.631879 5.330777 26.014336 23.859680 -36.086238 -7.796424 0.398233 -0.267511 2.362623 5.227963 42.837033 3.299600 -7.125000 0.000000 0.000000 -45.499700 67.983300 -27.221400 -0.191521 -5.163047 -1.586161 85.720889 -9.542335 -23.092359 -5.912456 11.065346 -0.222909 1.091204 -0.143651 13.949607 -14.618973 16.379364 -4.479300 7.125000 0.000000 0.000000 8.036200 -13.338200 6.026400 
1.754682 17.631006 -21.981031 3.230381 6.860585 2.811531 0.498598 0.829179 0.544259 -27.692586 -4.291153 6.671582 -0.262018 5.047040 14.385192 0.927630 -2.537293 -8.979339 0.243700 3.177000 8.772000 -2.626014 -0.555677 -0.462108 12.242551 12.084385 -30.361356 -0.391918 -6.117324 15.818960 1.700370 -14.538021 -13.734926 -0.034400 -1.197600 3.292600 -4.346462 -3.055145 8.802697 0.489749 -4.180363 -1.197158 4.056638 -2.590900 -0.090761 -0.854953 -1.156129 -15.575788 3.101160 -1.792947 10.113338 -0.739900 -0.769000 8.027700 1.110104 4.446426 -0.818884 -84.963257 5.421345 25.639097 23.588088 -35.814069 -7.654023 0.400515 -0.267105 2.784233 4.655134 41.649774 2.838600 -7.125000 0.000000 0.000000 -43.933600 66.979400 -25.190400 -0.198666 -5.176771 -1.606940 85.451057 -9.832600 -21.332979 -6.048592 11.297128 -0.255616 1.092684 -0.099796 12.202554 -14.492805 16.270912 -4.409200 7.125000 0.000000 0.000000 8.121200 -13.469900 6.068700 
1.746917 17.625080 -21.886625 3.206164 6.845949 2.901539 0.508817 0.846796 0.554678 -27.598201 -4.196937 6.990900 -0.285184 4.966096 14.175135 0.837161 -2.144307 -8.643780 0.218300 3.008100 8.301200 -2.637592 -0.572013 -0.452560 12.383414 11.847659 -30.650723 -0.373020 -6.060257 15.637297 1.824000 -15.112079 -13.296727 -0.040300 -1.295500 3.562300 -4.205225 -3.060720 9.024208 0.521714 -4.187121 -1.243515 4.109098 -2.579788 -0.368702 -1.078712 -1.187608 -15.210164 3.168863 -1.792476 10.001583 -0.663500 -0.779000 7.912500 1.112431 4.429561 -0.814179 -85.221287 5.663205 25.397758 23.334781 -35.523244 -7.493085 0.397843 -0.270758 2.861669 4.732443 42.037854 2.913900 -7.125000 0.000000 0.000000 -44.533000 67.277300 -25.877600 -0.195581 -5.151651 -1.601698 85.185040 -9.752106 -23.459248 -5.752852 10.732288 -0.178142 1.099518 -0.164717 14.469354 -14.781405 16.558965 -4.581800 7.125000 0.000000 0.000000 7.923600 -13.132100 5.974800 
1.746202 17.618746 -21.775463 3.459861 6.806635 2.956206 0.506704 0.860658 0.566270 -27.822670 -3.935923 7.491470 -0.308158 4.825038 13.798702 0.885489 -2.413207 -8.709515 0.217700 3.003700 8.289100 -2.631786 -0.576861 -0.461144 12.243609 11.393518 -30.853271 -0.396764 -6.123357 15.824865 1.760856 -14.772206 -13.262901 -0.059300 -1.571000 4.321400 -4.488777 -2.975185 9.105565 0.542508 -4.096051 -1.214863 4.342806 -2.551798 -0.279190 -1.038417 -1.282848 -15.685862 3.283385 -1.922621 10.065916 -0.654300 -0.824400 8.049500 1.114317 4.437405 -0.815418 -85.446046 5.699018 25.403262 22.912616 -35.080556 -7.263103 0.395204 -0.274376 3.238260 5.103387 40.956626 3.099100 -7.125000 0.000000 0.000000 -42.349700 66.627200 -23.818700 -0.190022 -5.152526 -1.622347 84.988042 -9.909802 -22.781316 -5.843604 10.880242 -0.208213 1.089063 -0.102252 13.501923 -14.829881 15.831168 -4.381700 7.125000 0.000000 0.000000 7.890900 -13.909700 5.819100 
1.742728 17.605770 -21.681569 3.463423 6.697967 3.191638 0.509878 0.867276 0.554885 -27.862730 -4.162173 7.835478 -0.347805 4.714067 13.491939 0.767207 -1.846557 -8.399073 0.204900 2.914400 8.040600 -2.642607 -0.585759 -0.450295 12.180781 11.495505 -31.395258 -0.424001 -6.244980 16.134794 1.812623 -14.997596 -12.955030 -0.079100 -1.814400 4.993000 -4.430352 -2.893090 8.938758 0.575717 -3.972264 -1.164532 4.400986 -2.503833 -0.047396 -0.821137 -1.468043 -15.897561 2.970226 -2.198954 10.091664 -0.867600 -0.973300 8.090100 1.126399 4.434022 -0.810051 -85.613405 5.631518 25.416283 22.723671 -34.884986 -7.150800 0.397196 -0.276041 3.227364 5.050983 41.268735 3.082200 -7.125000 0.000000 0.000000 -42.920900 66.835700 -24.386000 -0.157929 -5.177506 -1.614713 84.868298 -9.440846 -25.515234 -5.641765 10.549292 -0.161430 1.089413 -0.154980 16.030309 -15.096182 15.874879 -4.473000 7.125000 0.000000 0.000000 7.708000 -13.838500 5.693400 
1.732102 17.603216 -21.572041 3.370198 6.642684 3.223723 0.503346 0.886191 0.587246 -27.613398 -3.976951 8.174107 -0.344034 4.695151 13.458324 0.828109 -2.088501 -8.701620 0.230900 3.092500 8.536300 -2.656003 -0.598219 -0.443637 12.392847 11.502595 -31.343122 -0.436204 -6.307192 16.307980 1.906392 -15.475129 -12.856123 -0.046700 -1.394100 3.833800 -4.326461 -2.798733 9.168383 0.636518 -3.855312 -1.259337 4.563063 -2.423751 -0.489568 -0.907024 -1.397058 -15.450085 2.886782 -2.088749 10.002811 -0.876600 -0.938900 7.976600 1.159927 4.401984 -0.803756 -85.922771 6.160409 25.328084 22.350693 -34.449067 -6.924047 0.392237 -0.279525 3.654215 4.786408 41.758084 2.935700 -7.125000 0.000000 0.000000 -44.001200 67.101600 -25.352400 -0.152625 -5.162590 -1.643729 84.576603 -10.125185 -24.616406 -5.662443 10.554273 -0.156840 1.097583 -0.168026 14.827433 -14.819160 16.466690 -4.566800 7.125000 0.000000 0.000000 7.897400 -13.225800 5.939000 
